<?xml version="1.0" standalone="no"?><!DOCTYPE svg PUBLIC "-//W3C//DTD SVG 1.1//EN" "http://www.w3.org/Graphics/SVG/1.1/DTD/svg11.dtd"><svg t="1511766329953" class="icon" style="" viewBox="0 0 1024 1024" version="1.1" xmlns="http://www.w3.org/2000/svg" p-id="3526" xmlns:xlink="http://www.w3.org/1999/xlink" width="64" height="64"><defs><style type="text/css"></style></defs><path d="M993.867332 354.952618c-5.617955-6.128678-17.875312-20.939651-34.218454-39.836409-49.54015-57.711721-132.277307-154.238404-170.070823-195.606982-15.832419-16.853865-35.2399-38.304239-73.033417-39.836409-2.553616 0-11.23591-0.510723-117.466334-0.510723-121.041397 0-291.622943 0.510723-291.622942 0.510723-17.875312 0-45.454364 4.085786-76.097756 39.836409-22.47182 26.046883-56.690274 65.883292-91.930175 106.230424C94.994514 277.322693 50.050873 329.416459 28.600499 354.952618c-36.77207 42.900748-37.793516 102.655362-2.553616 155.770574l2.553616 3.064339c41.879302 49.029426 132.78803 153.727681 240.550623 277.322693l167.006484 192.542644c30.643392 35.750623 55.158105 40.347132 75.076309 40.347132 20.939651 0 44.432918-5.107232 75.076309-40.347132l173.135163-199.182045c101.633915-116.955611 187.946135-216.03591 234.932668-271.194015 31.664838-37.793516 40.857855-109.294763-0.510723-158.32419z m-41.879302 116.444888l-9.193018 12.257357c-45.965087 53.625935-130.234414 150.663342-230.336159 265.57606L542.898753 944.837905c-15.832419 17.875312-27.579052 18.386035-32.175561 18.386035-4.085786 0-15.321696-5.107232-30.643392-22.982543l-163.942144-188.967582c-104.698254-120.530673-193.053367-222.675312-234.932668-271.194015-18.386035-28.600499-18.896758-65.372569-1.021447-86.312219 20.939651-25.025436 65.372569-76.097756 108.78404-126.148628 30.132668-34.729177 60.265337-69.969077 90.398005-104.698255 14.300249-16.853865 27.068329-21.961097 32.175561-21.961097 0 0 167.517207-0.510723 286.004988-0.510723 89.887282 0 109.294763 0 112.869825 0.510723 9.703741 0.510723 18.386035 7.660848 33.197008 24.00399 36.261347 39.325686 116.955611 133.809476 165.474314 189.989027 11.23591 13.278803 22.47182 26.046883 33.70773 39.325686 17.875312 21.961097 23.493267 59.754613 9.193018 77.119202z" p-id="3527" fill="#ffffff"></path><path d="M737.995012 413.175062c-2.553616 0-3.575062 0-6.128678 4.085786L510.723192 699.18005 289.58005 417.260848c-2.553616-4.085786-3.575062-4.085786-6.128678-4.085786H213.993017v44.432918h2.042893c17.875312 0 24.514713 4.596509 32.175561 14.810973 0.510723 1.021446 1.53217 2.042893 2.553616 3.575062 43.411471 59.24389 211.950125 264.04389 259.958105 327.884289v-0.510723 0.510723c47.497257-63.840399 216.03591-269.151122 259.958105-327.884289 1.021446-1.021446 2.042893-2.553616 2.553616-3.575062 7.660848-9.703741 14.300249-14.810973 32.175561-14.810973h2.042893v-44.432918h-69.458355z" p-id="3528" fill="#ffffff"></path></svg>